<svg width="167" height="25" viewBox="0 0 167 25" fill="none" xmlns="http://www.w3.org/2000/svg">
<path d="M29.7812 7.71208C29.7812 3.47219 26.1212 0.0351562 21.6071 0.0351562C18.8667 0.0351562 16.4485 1.30557 14.9648 3.24736C13.4811 1.30557 11.0629 0.0351562 8.32334 0.0351562C3.80842 0.0351562 0.148438 3.47141 0.148438 7.71208C0.148438 8.31267 0.229623 8.89458 0.368799 9.45549C1.50374 16.0783 9.34479 23.0652 14.9648 24.9836C20.584 23.0652 28.4259 16.0783 29.5592 9.45627C29.7 8.89536 29.7812 8.31345 29.7812 7.71208Z" fill="#4CEACA"/>
<path d="M63.9531 7.71208C63.9531 3.47219 60.2931 0.0351562 55.779 0.0351562C53.0386 0.0351562 50.6204 1.30557 49.1367 3.24736C47.653 1.30557 45.2348 0.0351562 42.4952 0.0351562C37.9803 0.0351562 34.3203 3.47141 34.3203 7.71208C34.3203 8.31267 34.4015 8.89458 34.5407 9.45549C35.6756 16.0783 43.5167 23.0652 49.1367 24.9836C54.7559 23.0652 62.5978 16.0783 63.7311 9.45627C63.8719 8.89536 63.9531 8.31345 63.9531 7.71208Z" fill="#4CEACA"/>
<path d="M98.1328 7.71208C98.1328 3.47219 94.4728 0.0351562 89.9587 0.0351562C87.2183 0.0351562 84.8001 1.30557 83.3164 3.24736C81.8327 1.30557 79.4145 0.0351562 76.6749 0.0351562C72.16 0.0351562 68.5 3.47141 68.5 7.71208C68.5 8.31267 68.5812 8.89458 68.7204 9.45549C69.8553 16.0783 77.6964 23.0652 83.3164 24.9836C88.9356 23.0652 96.7775 16.0783 97.9108 9.45627C98.0516 8.89536 98.1328 8.31345 98.1328 7.71208Z" fill="#4CEACA"/>
<path d="M132.297 7.71208C132.297 3.47219 128.637 0.0351562 124.123 0.0351562C121.382 0.0351562 118.964 1.30557 117.48 3.24736C115.997 1.30557 113.579 0.0351562 110.839 0.0351562C106.324 0.0351562 102.664 3.47141 102.664 7.71208C102.664 8.31267 102.745 8.89458 102.884 9.45549C104.019 16.0783 111.86 23.0652 117.48 24.9836C123.1 23.0652 130.942 16.0783 132.075 9.45627C132.216 8.89536 132.297 8.31345 132.297 7.71208Z" fill="#4CEACA"/>
<path d="M166.469 7.71208C166.469 3.47219 162.809 0.0351562 158.295 0.0351562C155.554 0.0351562 153.136 1.30557 151.652 3.24736C150.169 1.30557 147.75 0.0351562 145.011 0.0351562C140.496 0.0351562 136.836 3.47141 136.836 7.71208C136.836 8.31267 136.917 8.89458 137.056 9.45549C138.191 16.0783 146.032 23.0652 151.652 24.9836C157.272 23.0652 165.113 16.0783 166.247 9.45627C166.388 8.89536 166.469 8.31345 166.469 7.71208Z" fill="#4CEACA"/>
</svg>
